PathFileType	4	(X/Y/Z)	25_coords_data.trc
DataRate	CameraRate	NumFrames	NumMarkers	Units	OrigDataRate	OrigDataStartFrame	OrigNumFrames
30.0	30.0	9	21	m	30.0	11	65
Frame#	Time	THUMB_TIP	THUMB_IP	THUMB_MCP	THUMB_CMC	INDEX_TIP	INDEX_DIP	INDEX_PIP	INDEX_MCP	MIDDLE_TIP	MIDDLE_DIP	MIDDLE_PIP	MIDDLE_MCP	RING_TIP	RING_DIP	RING_PIP	RING_MCP	PINKY_TIP	PINKY_DIP	PINKY_PIP	PINKY_MCP	WRIST
X1	Y1	Z1	X2	Y2	Z2	X3	Y3	Z3	X4	Y4	Z4	X5	Y5	Z5	X6	Y6	Z6	X7	Y7	Z7	X8	Y8	Z8	X9	Y9	Z9	X10	Y10	Z10	X11	Y11	Z11	X12	Y12	Z12	X13	Y13	Z13	X14	Y14	Z14	X15	Y15	Z15	X16	Y16	Z16	X17	Y17	Z17	X18	Y18	Z18	X19	Y19	Z19	X20	Y20	Z20	X21	Y21	Z21
10	0.3333333333333333	-0.029937799453735352	-0.08555549621582031	0.8921069946289063	-0.031934499740600586	-0.061392501831054686	0.9089559936523437	-0.03860079956054688	-0.036354598999023435	0.9295540161132813	-0.04858660125732422	-0.005273849964141846	0.9490980224609376	-0.006184249877929687	-0.021049299240112306	0.8072369995117188	-0.00984016990661621	-0.01649300003051758	0.830948974609375	-0.016804800033569336	-0.011211000442504882	0.8527269897460937	-0.031867599487304686	-0.001202980041503906	0.8908820190429687	-0.010326000213623046	0.04093389892578125	0.798	-0.012449700355529785	0.0335260009765625	0.8232000122070312	-0.019591400146484375	0.027284799575805666	0.8493469848632812	-0.03646649932861328	0.02136240005493164	0.8894000244140625	-0.00409246015548706	0.07907260131835937	0.8211539916992188	-0.010628499984741212	0.06789700317382813	0.8428090209960938	-0.020175600051879884	0.05654999923706055	0.8647249755859375	-0.034362400054931644	0.04044820022583008	0.8966380004882812	-0.01592269992828369	0.1061969985961914	0.8638939819335938	-0.018585599899291993	0.09097799682617187	0.8785859985351563	-0.02306920051574707	0.07747599792480468	0.8903939819335938	-0.03317729949951172	0.055745601654052734	0.9088400268554687	-0.07847139739990235	0.019157499313354493	0.970781982421875
11	0.36666666666666664	-0.030264200210571288	-0.0856531982421875	0.8920269775390625	-0.03222209930419922	-0.061632400512695314	0.9089990234375	-0.03876630020141601	-0.03643389892578125	0.9299080200195312	-0.04880049896240234	-0.005550370216369629	0.9494390258789063	-0.004266600131988526	-0.0209783992767334	0.8079940185546876	-0.00829067039489746	-0.016415700912475586	0.8317990112304687	-0.015554499626159669	-0.011269700050354005	0.8534390258789063	-0.03106800079345703	-0.001413529992103576	0.8913099975585937	-0.006925990104675293	0.04112379837036133	0.7992379760742188	-0.009749300003051757	0.033586898803710935	0.8245	-0.017662399291992186	0.027232099533081054	0.850593017578125	-0.03569380187988281	0.021192699432373046	0.8900679931640625	-0.0007068769931793211	0.07890440368652343	0.8228489990234376	-0.008069149971008301	0.06762030029296875	0.8442979736328124	-0.018430000305175782	0.05630989837646484	0.8659140014648438	-0.03367839813232422	0.04030049896240234	0.8975819702148438	-0.013394800186157227	0.10574099731445312	0.8649829711914062	-0.01661090087890625	0.09052230072021485	0.8797239990234375	-0.02163719940185547	0.07707559967041015	0.8914110107421875	-0.032414398193359374	0.05550600051879883	0.9097680053710937	-0.0785353012084961	0.019060400009155272	0.970635986328125
12	0.4	-0.027859199523925782	-0.08569770050048828	0.8933170166015625	-0.0300846004486084	-0.06138690185546875	0.9099580078125	-0.036990898132324215	-0.03606930160522461	0.9306240234375	-0.047374500274658206	-0.0051778402328491215	0.9499600219726563	-0.004981430053710938	-0.021037900924682617	0.8077540283203125	-0.008703240394592285	-0.016287300109863283	0.831822998046875	-0.015780500411987305	-0.011164199829101563	0.8534600219726562	-0.03089349937438965	-0.0013970099687576289	0.8914180297851563	-0.00943669033050537	0.04049190139770508	0.7985189819335937	-0.01167770004272461	0.03323979949951172	0.823822998046875	-0.018997800827026366	0.027024099349975586	0.8500900268554688	-0.035984298706054685	0.021135900497436525	0.8900570068359375	-0.004300469875335693	0.07835179901123047	0.8211599731445313	-0.010817299842834473	0.0673511962890625	0.8428980102539062	-0.020321100234985352	0.05614770126342773	0.864948974609375	-0.03454439926147461	0.040267398834228516	0.897156005859375	-0.016731000900268553	0.1058509979248047	0.8635280151367187	-0.019348499298095703	0.0908280029296875	0.8783179931640624	-0.023714399337768553	0.07740879821777344	0.8902880249023437	-0.03353200149536133	0.055809799194335936	0.9090330200195312	-0.07772090148925781	0.018920000076293946	0.971572998046875
13	0.43333333333333335	-0.02909029960632324	-0.0860282974243164	0.8936710205078126	-0.03112150001525879	-0.061735599517822266	0.9103369750976562	-0.03776890182495117	-0.03636759948730469	0.9308870239257813	-0.04796500015258789	-0.005365399837493896	0.9501599731445313	-0.0038844599723815917	-0.02122330093383789	0.8085280151367188	-0.007900780200958251	-0.01658559989929199	0.8324840087890625	-0.015280900001525878	-0.011442700386047363	0.8540130004882812	-0.030790599822998047	-0.0015395499467849732	0.8918980102539062	-0.0072304801940917965	0.04043130111694336	0.7994619750976563	-0.009961469650268555	0.03304209899902344	0.8247860107421875	-0.017866199493408202	0.026894800186157225	0.8512379760742188	-0.035762798309326174	0.02097260093688965	0.8904959716796875	-0.001632249951362609	0.07815589904785156	0.822447998046875	-0.008813260078430175	0.06717539978027344	0.8439920043945313	-0.01895439910888672	0.0559989013671875	0.8657589721679687	-0.034058101654052736	0.04016289901733398	0.8977860107421874	-0.014422699928283692	0.10579100036621093	0.8649249877929688	-0.017523000717163086	0.09056330108642578	0.8796500244140625	-0.02230139923095703	0.077131103515625	0.8913569946289063	-0.03278049850463867	0.05555440139770508	0.9096699829101562	-0.0780906982421875	0.018907300949096678	0.9712009887695312
14	0.4666666666666667	-0.02895560073852539	-0.0858948974609375	0.8932680053710937	-0.0310492000579834	-0.061737899780273435	0.9102100219726562	-0.0379109992980957	-0.036593700408935545	0.93089501953125	-0.048139400482177734	-0.005735310077667236	0.9503770141601563	-0.002779230117797851	-0.020474700927734374	0.809052978515625	-0.006991489887237549	-0.016060600280761717	0.83297802734375	-0.014610400199890137	-0.011156000137329102	0.8546190185546875	-0.030484899520874024	-0.0015449899435043331	0.8923209838867188	-0.005579770088195801	0.04124649810791016	0.8005360107421875	-0.008579870223999024	0.033566200256347656	0.8256710205078125	-0.016870399475097657	0.02716670036315918	0.8517880249023437	-0.035216999053955075	0.021016500473022462	0.8910759887695312	-0.00029600301384925804	0.07858580017089843	0.8236849975585937	-0.007626870155334473	0.06746279907226563	0.8451719970703125	-0.018153499603271485	0.056128898620605466	0.8667630004882813	-0.03359619903564453	0.04007849884033203	0.8985689697265625	-0.013280900001525878	0.10581199645996094	0.8662360229492188	-0.016520700454711913	0.09053929901123046	0.8808690185546875	-0.0215403995513916	0.07705069732666016	0.8924990234375	-0.032308101654052734	0.055248199462890626	0.910625	-0.07821189880371093	0.018754999160766603	0.9715880126953125
15	0.5	-0.02747279930114746	-0.08598049926757813	0.8943579711914063	-0.029801799774169923	-0.06167599868774414	0.9109019775390625	-0.036789299011230465	-0.03626179885864258	0.9314600219726562	-0.047289501190185546	-0.005329899787902832	0.9507570190429687	-0.0038092100620269772	-0.021154699325561525	0.8088270263671875	-0.007793389797210694	-0.016495800018310545	0.8328690185546875	-0.015201800346374512	-0.0114931001663208	0.854343994140625	-0.03065049934387207	-0.00168447995185852	0.8922069702148437	-0.007968389987945556	0.040012500762939454	0.7997100219726563	-0.010616000175476075	0.03279150009155273	0.8248280029296875	-0.01833370018005371	0.02664940071105957	0.8512760009765625	-0.0358036003112793	0.020797000885009766	0.890780029296875	-0.003790849924087524	0.07746369934082031	0.821572998046875	-0.010370200157165527	0.06658450317382812	0.843468994140625	-0.019914899826049805	0.05562409973144531	0.8655560302734375	-0.034396900177001956	0.03999129867553711	0.8979169921875	-0.016450799942016602	0.10531300354003906	0.8639030151367187	-0.019021299362182616	0.09037259674072265	0.8788690185546875	-0.023434900283813478	0.07704440307617187	0.8908820190429687	-0.033202800750732425	0.055564498901367186	0.9096389770507812	-0.07748619842529297	0.018615400314331055	0.9718930053710938
16	0.5333333333333333	-0.028524499893188476	-0.08605139923095703	0.894031982421875	-0.030773399353027343	-0.06176689910888672	0.9107540283203125	-0.03761130142211914	-0.03644359970092773	0.9313569946289062	-0.04790679931640625	-0.005508669853210449	0.9506710205078125	-0.003163490056991577	-0.02116080093383789	0.8092540283203125	-0.007323400020599365	-0.016554000854492188	0.8330819702148438	-0.014922200202941894	-0.011522299766540527	0.8546619873046875	-0.030691099166870118	-0.001762779951095581	0.892385986328125	-0.006301700115203857	0.04017530059814453	0.8002849731445313	-0.009325630187988281	0.032771198272705075	0.8255330200195312	-0.017523300170898436	0.02664780044555664	0.8518560180664062	-0.035680000305175784	0.02084819984436035	0.8909089965820313	-0.001753090023994445	0.07728610229492187	0.8225269775390625	-0.008866310119628906	0.06654080200195313	0.8441929931640625	-0.019050899505615233	0.05547650146484375	0.8661480102539062	-0.03422090148925781	0.039988601684570316	0.8981500244140626	-0.014708700180053711	0.10514499664306641	0.864698974609375	-0.017729799270629884	0.09012429809570313	0.8796209716796874	-0.02248710060119629	0.0768156967163086	0.8915180053710937	-0.03292770004272461	0.055409801483154296	0.9101380004882812	-0.07810130310058594	0.018712299346923828	0.9717470092773437
17	0.5666666666666667	-0.028109699249267577	-0.08587860107421875	0.8936530151367188	-0.030434999465942383	-0.06169049835205078	0.9105139770507813	-0.03743820190429688	-0.036525398254394534	0.9312579956054687	-0.047823699951171875	-0.0055902099609375	0.9507319946289062	-0.0032475600242614744	-0.020706100463867186	0.8089769897460938	-0.007403580188751221	-0.016208200454711913	0.8330819702148438	-0.014935299873352051	-0.011331500053405762	0.8546840209960938	-0.030733600616455078	-0.001793930053710937	0.8925650024414062	-0.006687520027160644	0.04030989837646484	0.8003259887695312	-0.00956389045715332	0.03288740158081055	0.8255260009765625	-0.017711299896240235	0.026707799911499023	0.8518410034179688	-0.03576559829711914	0.020703500747680664	0.8910759887695312	-0.002318020105361938	0.07723650360107422	0.8224860229492188	-0.009342700004577638	0.066529296875	0.8443709716796876	-0.019302900314331056	0.0554718017578125	0.8662009887695312	-0.034335399627685545	0.039859500885009766	0.8981589965820312	-0.015200099945068359	0.10504399871826171	0.8646510009765624	-0.018150699615478515	0.09005850219726562	0.8795900268554687	-0.022808500289916992	0.07675839996337891	0.891552978515625	-0.03312310028076172	0.05527539825439453	0.910344970703125	-0.07801889801025391	0.018470699310302735	0.9720570068359375
18	0.6	-0.02823150062561035	-0.08604940032958984	0.89385302734375	-0.0305900993347168	-0.061814800262451175	0.91064501953125	-0.037545101165771484	-0.03656520080566406	0.9313900146484375	-0.04791220092773438	-0.005713980197906494	0.9506400146484375	-0.0038593699932098387	-0.020981800079345702	0.8088989868164063	-0.007928860187530518	-0.016499500274658203	0.832833984375	-0.015405799865722656	-0.011542300224304199	0.8545609741210938	-0.031091299057006836	-0.00194760000705719	0.892375	-0.007287449836730957	0.03975320053100586	0.8000050048828125	-0.010231599807739258	0.032477401733398435	0.82518701171875	-0.018151399612426757	0.0262681999206543	0.8509650268554687	-0.03603929901123047	0.02059679985046387	0.8908920288085938	-0.0029806900024414063	0.07684539794921875	0.8219990234375	-0.009899109840393066	0.06614299774169922	0.8437559814453125	-0.019797500610351564	0.05517919921875	0.86589599609375	-0.034724300384521484	0.039744300842285155	0.8982340087890625	-0.015928000450134278	0.10475599670410156	0.8641820068359375	-0.018702499389648436	0.08986430358886718	0.879135009765625	-0.02335330009460449	0.0765906982421875	0.8911279907226562	-0.033503501892089844	0.05519599914550781	0.9099749755859375	-0.0781073989868164	0.018429500579833984	0.9719630126953125
